<?xml version="1.0" encoding="UTF-8"?>
<svg id="Capa_1" xmlns="http://www.w3.org/2000/svg" version="1.1" viewBox="0 0 555.52 108.76">
  <!-- Generator: Adobe Illustrator 29.8.2, SVG Export Plug-In . SVG Version: 2.1.1 Build 3)  -->
  <defs>
    <style>
      .st0 {
        fill: #a461de;
      }

      .st1 {
        fill: #fff;
      }
    </style>
  </defs>
  <g>
    <path d="M223.23,17.63l-33.44,77.26h-17.66l-33.33-77.26h19.31l23.51,55.19,23.84-55.19h17.77Z"/>
    <path d="M219.58,65.2c0-17.88,13.8-30.57,32.67-30.57s32.56,12.69,32.56,30.57-13.69,30.57-32.56,30.57-32.67-12.69-32.67-30.57ZM267.37,65.2c0-10.26-6.51-16.45-15.12-16.45s-15.23,6.18-15.23,16.45,6.62,16.45,15.23,16.45,15.12-6.18,15.12-16.45Z"/>
    <path d="M344.4,81.64v13.24h-52.98v-10.37l30.24-35.76h-29.47v-13.24h51.21v10.37l-30.24,35.76h31.23Z"/>
    <path d="M356.65,17.63h17.88v62.69h38.74v14.57h-56.62V17.63Z"/>
    <path d="M475.29,61v33.88h-16.11v-7.39c-3.2,5.41-9.38,8.28-18.1,8.28-13.91,0-22.19-7.73-22.19-17.99s7.39-17.77,25.5-17.77h13.69c0-7.4-4.41-11.7-13.69-11.7-6.29,0-12.8,2.1-17.11,5.52l-6.18-12.03c6.51-4.64,16.11-7.17,25.61-7.17,18.1,0,28.59,8.39,28.59,26.38ZM458.07,76.12v-6.07h-11.81c-8.06,0-10.59,2.98-10.59,6.95,0,4.3,3.64,7.17,9.71,7.17,5.74,0,10.71-2.65,12.69-8.06Z"/>
    <path d="M555.52,65.2c0,18.65-12.91,30.57-29.58,30.57-7.95,0-14.35-2.54-18.65-7.73v6.84h-16.44V12.99h17.22v28.81c4.42-4.86,10.49-7.17,17.88-7.17,16.67,0,29.58,11.92,29.58,30.57ZM538.08,65.2c0-10.26-6.51-16.45-15.12-16.45s-15.12,6.18-15.12,16.45,6.51,16.45,15.12,16.45,15.12-6.18,15.12-16.45Z"/>
  </g>
  <rect class="st0" width="108.76" height="108.76" rx="23.56" ry="23.56"/>
  <g>
    <path class="st1" d="M66.57,91.4h-24.37c-1.24,0-2.24-1-2.24-2.24s1-2.24,2.24-2.24h24.37c1.24,0,2.24,1,2.24,2.24s-1,2.24-2.24,2.24Z"/>
    <path class="st1" d="M54.38,91.4c-1.24,0-2.24-1-2.24-2.24v-18.34c0-1.24,1-2.24,2.24-2.24s2.24,1,2.24,2.24v18.34c0,1.24-1,2.24-2.24,2.24Z"/>
    <path class="st1" d="M54.5,71.72h-.24c-5.6,0-10.87-2.18-14.83-6.14-3.96-3.96-6.14-9.23-6.14-14.83,0-1.24,1-2.24,2.24-2.24s2.24,1,2.24,2.24c0,4.41,1.72,8.55,4.83,11.67,3.12,3.12,7.26,4.83,11.67,4.83h.24c4.41,0,8.55-1.72,11.67-4.83,3.12-3.12,4.83-7.26,4.83-11.67,0-1.24,1-2.24,2.24-2.24s2.24,1,2.24,2.24c0,5.6-2.18,10.87-6.14,14.83-3.96,3.96-9.23,6.14-14.83,6.14Z"/>
    <path class="st1" d="M60.05,50.02v-2.86h6.52v-2.88h-6.52v-2.86h6.52s0-2.88,0-2.88h-6.52v-2.86h6.52s0-2.88,0-2.88h-6.52v-2.86h6.52v-.53c0-6.66-5.4-12.06-12.06-12.06h-.24c-6.66,0-12.06,5.4-12.06,12.06v.53h6.52v2.86h-6.52v2.88h6.52v2.86h-6.52v2.88h6.52v2.86h-6.52v2.88h6.52v2.86h-6.52v.73c0,6.66,5.4,12.06,12.06,12.06h.24c6.66,0,12.06-5.4,12.06-12.06v-.73h-6.52Z"/>
  </g>
</svg>